<svg width="12" height="18" viewBox="0 0 12 18" fill="none" xmlns="http://www.w3.org/2000/svg">
<path d="M5.99999 0.666626C2.77499 0.666626 0.166656 3.27496 0.166656 6.49996C0.166656 7.94996 0.583323 9.30829 1.34166 10.5333C2.13332 11.8166 3.17499 12.9166 3.97499 14.2C4.36666 14.825 4.64999 15.4083 4.94999 16.0833C5.16666 16.5416 5.34166 17.3333 5.99999 17.3333C6.65832 17.3333 6.83332 16.5416 7.04166 16.0833C7.34999 15.4083 7.62499 14.825 8.01666 14.2C8.81666 12.925 9.85832 11.825 10.65 10.5333C11.4167 9.30829 11.8333 7.94996 11.8333 6.49996C11.8333 3.27496 9.22499 0.666626 5.99999 0.666626ZM5.99999 8.79163C4.84999 8.79163 3.91666 7.85829 3.91666 6.70829C3.91666 5.55829 4.84999 4.62496 5.99999 4.62496C7.14999 4.62496 8.08332 5.55829 8.08332 6.70829C8.08332 7.85829 7.14999 8.79163 5.99999 8.79163Z" fill="#FB6721"/>
</svg>
