<svg width="91" height="90" viewBox="0 0 91 90" fill="none" xmlns="http://www.w3.org/2000/svg">
<g clip-path="url(#clip0)">
<g clip-path="url(#clip1)">
<circle cx="45.1696" cy="45" r="45" fill="#FB6721"/>
<mask id="mask0" mask-type="alpha" maskUnits="userSpaceOnUse" x="0" y="0" width="91" height="90">
<circle cx="45.1696" cy="45" r="45" fill="#FB6721"/>
</mask>
<g mask="url(#mask0)">
<mask id="path-3-inside-1" fill="white">
<path fill-rule="evenodd" clip-rule="evenodd" d="M56.9996 60.6283C65.7927 56.2933 71.8421 47.2398 71.8421 36.7733C71.8421 22.0932 59.9416 10.1926 45.2615 10.1926C30.5814 10.1926 18.6808 22.0932 18.6808 36.7733C18.6808 47.2396 24.73 56.2931 33.5229 60.6281L35.4344 71.9113H55.0882L56.9996 60.6283Z"/>
</mask>
<path fill-rule="evenodd" clip-rule="evenodd" d="M56.9996 60.6283C65.7927 56.2933 71.8421 47.2398 71.8421 36.7733C71.8421 22.0932 59.9416 10.1926 45.2615 10.1926C30.5814 10.1926 18.6808 22.0932 18.6808 36.7733C18.6808 47.2396 24.73 56.2931 33.5229 60.6281L35.4344 71.9113H55.0882L56.9996 60.6283Z" fill="white"/>
<path d="M56.9996 60.6283L55.2309 57.0406L53.3973 57.9446L53.0558 59.9602L56.9996 60.6283ZM33.5229 60.6281L37.4667 59.96L37.1253 57.9444L35.2917 57.0405L33.5229 60.6281ZM35.4344 71.9113L31.4906 72.5794L32.0551 75.9113H35.4344V71.9113ZM55.0882 71.9113V75.9113H58.4675L59.032 72.5794L55.0882 71.9113ZM67.8421 36.7733C67.8421 45.6588 62.7104 53.3532 55.2309 57.0406L58.7684 64.216C68.8751 59.2334 75.8421 48.8207 75.8421 36.7733H67.8421ZM45.2615 14.1926C57.7324 14.1926 67.8421 24.3023 67.8421 36.7733H75.8421C75.8421 19.8841 62.1507 6.19263 45.2615 6.19263V14.1926ZM22.6808 36.7733C22.6808 24.3023 32.7905 14.1926 45.2615 14.1926V6.19263C28.3722 6.19263 14.6808 19.8841 14.6808 36.7733H22.6808ZM35.2917 57.0405C27.8124 53.353 22.6808 45.6587 22.6808 36.7733H14.6808C14.6808 48.8205 21.6477 59.2331 31.7541 64.2158L35.2917 57.0405ZM39.3782 71.2432L37.4667 59.96L29.5791 61.2963L31.4906 72.5794L39.3782 71.2432ZM55.0882 67.9113H35.4344V75.9113H55.0882V67.9113ZM53.0558 59.9602L51.1444 71.2432L59.032 72.5794L60.9434 61.2964L53.0558 59.9602Z" fill="black" mask="url(#path-3-inside-1)"/>
<path d="M55.0885 74.584C55.0885 80.0113 50.6889 84.4109 45.2617 84.4109C39.8344 84.4109 35.4348 80.0112 35.4348 74.584L35.4348 71.9113L55.0885 71.9113L55.0885 74.584Z" fill="black"/>
</g>
<path d="M41.9622 67.9474L38.3771 42.0825" stroke="black" stroke-width="3" stroke-linecap="round"/>
<path d="M48.3772 67.9474L51.9623 42.0825" stroke="black" stroke-width="3" stroke-linecap="round"/>
<path d="M33.7423 45.2558C32.5348 41.7945 31.4675 33.9061 37.1229 33.9061C44.0526 33.9061 43.5696 45.2558 40.9866 45.2558C38.4036 45.2558 33.2386 33.9061 44.7089 33.9061C56.1792 33.9061 51.3837 45.2557 48.6799 45.2558C46.0678 45.2558 43.9112 32.4572 53.2082 33.9061C57.7349 34.6116 58.7415 41.9555 56.1657 45.2558" stroke="black" stroke-width="3" stroke-linecap="round"/>
</g>
</g>
<defs>
<clipPath id="clip0">
<rect width="90" height="90" fill="white" transform="translate(0.169586)"/>
</clipPath>
<clipPath id="clip1">
<rect width="90" height="90" fill="white" transform="translate(0.169586)"/>
</clipPath>
</defs>
</svg>
