<svg width="91" height="90" viewBox="0 0 91 90" fill="none" xmlns="http://www.w3.org/2000/svg">
<g clip-path="url(#clip0)">
<g clip-path="url(#clip1)">
<circle cx="45.1696" cy="45" r="45" fill="#FB6721"/>
<mask id="mask0" mask-type="alpha" maskUnits="userSpaceOnUse" x="0" y="0" width="91" height="90">
<circle cx="45.1696" cy="45" r="45" fill="#FB6721"/>
</mask>
<g mask="url(#mask0)">
<path d="M31.5797 24.8945C31.9403 23.596 33.1226 22.6973 34.4703 22.6973H55.8689C57.2166 22.6973 58.3989 23.596 58.7595 24.8945L66.9469 54.3763C67.2521 55.4753 66.8553 56.2958 66.2443 56.6389C63.2797 58.3034 56.778 60.9341 45.2262 60.9341C33.6793 60.9341 27.1257 58.3055 24.1215 56.6367C23.4958 56.2891 23.0926 55.4552 23.4002 54.3478L31.5797 24.8945Z" fill="white" stroke="black" stroke-width="4"/>
<rect x="39.1696" y="60.9341" width="12" height="16.0291" fill="black"/>
<circle cx="45.1696" cy="80.032" r="14.779" fill="black"/>
<ellipse cx="45.1696" cy="23.7305" rx="14.5" ry="5.51708" fill="black"/>
<rect x="56.9284" y="58.5508" width="4.83237" height="9.38296" rx="2.41618" fill="black"/>
</g>
<ellipse cx="37.7823" cy="75.9534" rx="2.22949" ry="3.07371" transform="rotate(23.5777 37.7823 75.9534)" fill="white"/>
</g>
</g>
<defs>
<clipPath id="clip0">
<rect width="90" height="90" fill="white" transform="translate(0.169586)"/>
</clipPath>
<clipPath id="clip1">
<rect width="90" height="90" fill="white" transform="translate(0.169586)"/>
</clipPath>
</defs>
</svg>
