<svg width="91" height="90" viewBox="0 0 91 90" fill="none" xmlns="http://www.w3.org/2000/svg">
<g clip-path="url(#clip0)">
<g clip-path="url(#clip1)">
<circle cx="45.1696" cy="45" r="45" fill="#FB6721"/>
<mask id="mask0" mask-type="alpha" maskUnits="userSpaceOnUse" x="0" y="0" width="91" height="90">
<circle cx="45.1696" cy="45" r="45" fill="#FB6721"/>
</mask>
<g mask="url(#mask0)">
<mask id="path-3-inside-1" fill="white">
<path fill-rule="evenodd" clip-rule="evenodd" d="M60.7078 59.8219L58.406 53.2055C57.7067 51.1955 55.8118 49.8484 53.6836 49.8484H36.6554C34.5272 49.8484 32.6322 51.1955 31.933 53.2055L29.6311 59.8219H27.2194C23.3534 59.8219 20.2194 62.9559 20.2194 66.8219V94.9197C20.2194 98.7857 23.3534 101.92 27.2194 101.92H63.1199C66.9859 101.92 70.1199 98.7857 70.1199 94.9197V66.8219C70.1199 62.9559 66.9859 59.8219 63.1199 59.8219H60.7078Z"/>
</mask>
<path fill-rule="evenodd" clip-rule="evenodd" d="M60.7078 59.8219L58.406 53.2055C57.7067 51.1955 55.8118 49.8484 53.6836 49.8484H36.6554C34.5272 49.8484 32.6322 51.1955 31.933 53.2055L29.6311 59.8219H27.2194C23.3534 59.8219 20.2194 62.9559 20.2194 66.8219V94.9197C20.2194 98.7857 23.3534 101.92 27.2194 101.92H63.1199C66.9859 101.92 70.1199 98.7857 70.1199 94.9197V66.8219C70.1199 62.9559 66.9859 59.8219 63.1199 59.8219H60.7078Z" fill="white"/>
<path d="M60.7078 59.8219L56.9299 61.1362L57.8642 63.8219H60.7078V59.8219ZM58.406 53.2055L62.1839 51.8912V51.8912L58.406 53.2055ZM31.933 53.2055L28.1551 51.8912L28.1551 51.8912L31.933 53.2055ZM29.6311 59.8219V63.8219H32.4747L33.409 61.1362L29.6311 59.8219ZM64.4857 58.5076L62.1839 51.8912L54.6281 54.5198L56.9299 61.1362L64.4857 58.5076ZM62.1839 51.8912C60.9252 48.2732 57.5143 45.8484 53.6836 45.8484V53.8484C54.1092 53.8484 54.4882 54.1178 54.6281 54.5198L62.1839 51.8912ZM53.6836 45.8484H36.6554V53.8484H53.6836V45.8484ZM36.6554 45.8484C32.8247 45.8484 29.4138 48.2732 28.1551 51.8912L35.7109 54.5198C35.8507 54.1178 36.2297 53.8484 36.6554 53.8484V45.8484ZM28.1551 51.8912L25.8532 58.5076L33.409 61.1362L35.7109 54.5198L28.1551 51.8912ZM27.2194 63.8219H29.6311V55.8219H27.2194V63.8219ZM24.2194 66.8219C24.2194 65.1651 25.5625 63.8219 27.2194 63.8219V55.8219C21.1443 55.8219 16.2194 60.7468 16.2194 66.8219H24.2194ZM24.2194 94.9197V66.8219H16.2194V94.9197H24.2194ZM27.2194 97.9197C25.5625 97.9197 24.2194 96.5766 24.2194 94.9197H16.2194C16.2194 100.995 21.1442 105.92 27.2194 105.92V97.9197ZM63.1199 97.9197H27.2194V105.92H63.1199V97.9197ZM66.1199 94.9197C66.1199 96.5766 64.7767 97.9197 63.1199 97.9197V105.92C69.195 105.92 74.1199 100.995 74.1199 94.9197H66.1199ZM66.1199 66.8219V94.9197H74.1199V66.8219H66.1199ZM63.1199 63.8219C64.7767 63.8219 66.1199 65.1651 66.1199 66.8219H74.1199C74.1199 60.7468 69.195 55.8219 63.1199 55.8219V63.8219ZM60.7078 63.8219H63.1199V55.8219H60.7078V63.8219Z" fill="black" mask="url(#path-3-inside-1)"/>
<path d="M52.3597 65.6206L47.3725 53.1243H56.1017L59.9325 61.8717L65.8357 62.3128L68.4105 64.371V90.2296L61.2513 92.6716L52.3597 95.612V65.6206Z" fill="black"/>
<path d="M45.1696 44.4922V51.8879" stroke="black" stroke-width="3" stroke-linecap="round"/>
<path d="M34.1686 28.716C34.1686 41.3078 42.3299 43.2898 46.4106 42.7069C56.2042 42.7069 56.7872 33.3796 55.8545 28.716L46.4106 9.47852C42.3299 10.6444 34.1686 16.1242 34.1686 28.716Z" fill="white" stroke="black" stroke-width="4" stroke-linecap="round"/>
<path d="M38.821 34.6709C38.821 41.9376 43.5308 43.0814 45.8857 42.745C51.5376 42.745 51.874 37.3623 51.3357 34.6709L45.8857 23.5691C43.5308 24.2419 38.821 27.4043 38.821 34.6709Z" fill="black"/>
</g>
</g>
</g>
<defs>
<clipPath id="clip0">
<rect width="90" height="90" fill="white" transform="translate(0.169586)"/>
</clipPath>
<clipPath id="clip1">
<rect width="90" height="90" fill="white" transform="translate(0.169586)"/>
</clipPath>
</defs>
</svg>
