<svg width="91" height="90" viewBox="0 0 91 90" fill="none" xmlns="http://www.w3.org/2000/svg">
<g clip-path="url(#clip0)">
<circle cx="45.1696" cy="45" r="45" fill="#FB6721"/>
<mask id="mask0" mask-type="alpha" maskUnits="userSpaceOnUse" x="0" y="0" width="91" height="90">
<circle cx="45.1696" cy="45" r="45" fill="#FB6721"/>
</mask>
<g mask="url(#mask0)">
<mask id="path-3-outside-1" maskUnits="userSpaceOnUse" x="11.5614" y="19.4521" width="68" height="58" fill="black">
<rect fill="white" x="11.5614" y="19.4521" width="68" height="58"/>
<path fill-rule="evenodd" clip-rule="evenodd" d="M49.3943 65.4671C63.7452 64.0051 74.7777 55.2044 74.7777 44.5663C74.7777 32.9053 61.5217 23.4521 45.1696 23.4521C28.8175 23.4521 15.5614 32.9053 15.5614 44.5663C15.5614 54.1616 24.5369 62.2619 36.8274 64.8307L33.8674 69.7365C32.8115 71.4864 34.7508 73.5065 36.5424 72.5229L49.3943 65.4671Z"/>
</mask>
<path fill-rule="evenodd" clip-rule="evenodd" d="M49.3943 65.4671C63.7452 64.0051 74.7777 55.2044 74.7777 44.5663C74.7777 32.9053 61.5217 23.4521 45.1696 23.4521C28.8175 23.4521 15.5614 32.9053 15.5614 44.5663C15.5614 54.1616 24.5369 62.2619 36.8274 64.8307L33.8674 69.7365C32.8115 71.4864 34.7508 73.5065 36.5424 72.5229L49.3943 65.4671Z" fill="white"/>
<path d="M49.3943 65.4671L48.9889 61.4877L48.181 61.57L47.4693 61.9608L49.3943 65.4671ZM36.8274 64.8307L40.2522 66.8972L43.1654 62.069L37.6457 60.9153L36.8274 64.8307ZM33.8674 69.7365L37.2923 71.8029V71.8029L33.8674 69.7365ZM36.5424 72.5229L38.4673 76.0292H38.4674L36.5424 72.5229ZM70.7777 44.5663C70.7777 48.4068 68.798 52.2109 64.9394 55.358C61.0738 58.5108 55.4955 60.8248 48.9889 61.4877L49.7997 69.4465C57.644 68.6473 64.7574 65.83 69.9958 61.5575C75.2412 57.2792 78.7777 51.3639 78.7777 44.5663H70.7777ZM45.1696 27.4521C52.6095 27.4521 59.1777 29.6088 63.7833 32.8931C68.3969 36.1831 70.7777 40.3658 70.7777 44.5663H78.7777C78.7777 37.1058 74.5306 30.7314 68.4282 26.3796C62.3177 22.0221 54.0818 19.4521 45.1696 19.4521V27.4521ZM19.5614 44.5663C19.5614 40.3658 21.9423 36.1831 26.5559 32.8931C31.1615 29.6088 37.7297 27.4521 45.1696 27.4521V19.4521C36.2574 19.4521 28.0215 22.0221 21.911 26.3796C15.8086 30.7314 11.5614 37.1058 11.5614 44.5663H19.5614ZM37.6457 60.9153C26.228 58.529 19.5614 51.4197 19.5614 44.5663H11.5614C11.5614 56.9035 22.8458 65.9949 36.009 68.7461L37.6457 60.9153ZM37.2923 71.8029L40.2522 66.8972L33.4025 62.7643L30.4425 67.67L37.2923 71.8029ZM34.6174 69.0165C36.409 68.0329 38.3482 70.053 37.2923 71.8029L30.4425 67.67C27.2749 72.9199 33.0925 78.98 38.4673 76.0292L34.6174 69.0165ZM47.4693 61.9608L34.6174 69.0165L38.4674 76.0292L51.3193 68.9734L47.4693 61.9608Z" fill="black" mask="url(#path-3-outside-1)"/>
<ellipse cx="30.9316" cy="44.7955" rx="3.98211" ry="4.50683" transform="rotate(23.7185 30.9316 44.7955)" fill="black"/>
<ellipse cx="45.1697" cy="44.7955" rx="3.98211" ry="4.50683" transform="rotate(23.7185 45.1697 44.7955)" fill="black"/>
<ellipse cx="59.4077" cy="44.7955" rx="3.98211" ry="4.50683" transform="rotate(23.7185 59.4077 44.7955)" fill="black"/>
</g>
</g>
<defs>
<clipPath id="clip0">
<rect width="90" height="90" fill="white" transform="translate(0.169586)"/>
</clipPath>
</defs>
</svg>
