<svg width="91" height="90" viewBox="0 0 91 90" fill="none" xmlns="http://www.w3.org/2000/svg">
<g clip-path="url(#clip0)">
<g clip-path="url(#clip1)">
<circle cx="45.1696" cy="45" r="45" fill="#FB6721"/>
<mask id="mask0" mask-type="alpha" maskUnits="userSpaceOnUse" x="0" y="0" width="91" height="90">
<circle cx="45.1696" cy="45" r="45" fill="#FB6721"/>
</mask>
<g mask="url(#mask0)">
<circle cx="45.1696" cy="43.9602" r="23.5583" fill="white" stroke="black" stroke-width="4"/>
<rect x="61.5727" y="64.9188" width="10.8784" height="27.6281" rx="5.43921" fill="black"/>
<rect x="17.8881" y="64.9188" width="10.8784" height="27.6281" rx="5.43921" fill="black"/>
<path d="M29.053 67.6204L29.053 48.0286C29.053 42.8141 24.8258 38.5869 19.6113 38.5869C14.3968 38.5869 10.1696 42.8141 10.1696 48.0286C10.1696 51.769 12.3446 55.0013 15.4988 56.53V72.4525H15.5305C15.9405 77.6259 20.2686 81.6962 25.5473 81.6962H64.7918C70.0706 81.6962 74.3986 77.6259 74.8086 72.4525H74.8404V56.53C77.9946 55.0013 80.1696 51.769 80.1696 48.0286C80.1696 42.8141 75.9424 38.5869 70.7279 38.5869C65.5134 38.5869 61.2862 42.8141 61.2862 48.0286V67.6204H29.053Z" fill="black"/>
<rect x="22.2505" y="56.0071" width="45.8382" height="11.6133" rx="5.80667" fill="white" stroke="black" stroke-width="4"/>
</g>
</g>
</g>
<defs>
<clipPath id="clip0">
<rect width="90" height="90" fill="white" transform="translate(0.169586)"/>
</clipPath>
<clipPath id="clip1">
<rect width="90" height="90" fill="white" transform="translate(0.169586)"/>
</clipPath>
</defs>
</svg>
