<svg width="91" height="91" viewBox="0 0 91 91" fill="none" xmlns="http://www.w3.org/2000/svg">
<g clip-path="url(#clip0)">
<g clip-path="url(#clip1)">
<circle cx="45.1696" cy="45.9592" r="45" fill="#FB6721"/>
<mask id="mask0" mask-type="alpha" maskUnits="userSpaceOnUse" x="0" y="0" width="91" height="91">
<circle cx="45.1696" cy="45.9592" r="45" fill="#FB6721"/>
</mask>
<g mask="url(#mask0)">
<rect x="61.5727" y="65.8781" width="10.8784" height="27.6281" rx="5.43921" fill="black"/>
<rect x="17.8881" y="65.8781" width="10.8784" height="27.6281" rx="5.43921" fill="black"/>
<path d="M75.3275 44.9194C75.3275 57.5414 62.3934 68.4777 45.4694 68.4777C28.5453 68.4777 15.6112 57.5414 15.6112 44.9194C15.6112 32.2973 28.5453 21.3611 45.4694 21.3611C62.3934 21.3611 75.3275 32.2973 75.3275 44.9194Z" fill="white" stroke="black" stroke-width="4"/>
<path d="M34.2437 39.6119L35.1499 37.7313C35.5206 36.962 36.6226 36.9812 36.9662 37.7629L37.7946 39.6473L39.4509 40.367C40.2445 40.7118 40.2553 41.8334 39.4685 42.1935L37.7614 42.9746L36.8848 44.7307C36.5156 45.4703 35.4595 45.468 35.0934 44.7269L34.2106 42.9392L32.5195 42.1242C31.74 41.7486 31.7731 40.6274 32.5734 40.2985L34.2437 39.6119Z" fill="black"/>
<path d="M52.5748 39.6119L53.481 37.7313C53.8516 36.962 54.9537 36.9812 55.2973 37.7629L56.1256 39.6473L57.7819 40.367C58.5755 40.7118 58.5863 41.8334 57.7995 42.1935L56.0925 42.9746L55.2158 44.7307C54.8466 45.4703 53.7905 45.468 53.4245 44.7269L52.5416 42.9392L50.8505 42.1242C50.071 41.7486 50.1042 40.6274 50.9045 40.2985L52.5748 39.6119Z" fill="black"/>
<path d="M23.0529 68.5797L23.0529 48.9878C23.0529 43.7734 18.8257 39.5461 13.6112 39.5461C8.39672 39.5461 4.16953 43.7733 4.16953 48.9878C4.16953 52.7282 6.34449 55.9606 9.4987 57.4892V82.1898H9.53047C9.94048 87.3632 14.2685 91.4335 19.5473 91.4335H70.7918C76.0705 91.4335 80.3986 87.3632 80.8086 82.1898H80.8403V57.4892C83.9946 55.9606 86.1695 52.7282 86.1695 48.9878C86.1695 43.7733 81.9423 39.5461 76.7278 39.5461C71.5133 39.5461 67.2862 43.7733 67.2861 48.9878V68.5797H23.0529Z" fill="black"/>
<rect x="16.901" y="56.9663" width="57.1369" height="11.6133" rx="5.80667" fill="white" stroke="black" stroke-width="4"/>
</g>
</g>
</g>
<defs>
<clipPath id="clip0">
<rect width="90" height="90" fill="white" transform="translate(0.169586 0.959229)"/>
</clipPath>
<clipPath id="clip1">
<rect width="90" height="90" fill="white" transform="translate(0.169586 0.959229)"/>
</clipPath>
</defs>
</svg>
