<svg width="91" height="90" viewBox="0 0 91 90" fill="none" xmlns="http://www.w3.org/2000/svg">
<g clip-path="url(#clip0)">
<g clip-path="url(#clip1)">
<circle cx="45.5" cy="45" r="45" fill="#FB6721"/>
<mask id="mask0" mask-type="alpha" maskUnits="userSpaceOnUse" x="0" y="0" width="91" height="90">
<circle cx="45.5" cy="45" r="45" fill="#FB6721"/>
</mask>
<g mask="url(#mask0)">
<circle cx="45.5" cy="43.9602" r="23.0583" fill="white" stroke="black" stroke-width="5"/>
<rect x="61.9031" y="64.9188" width="10.8784" height="27.6281" rx="5.43921" fill="black"/>
<rect x="18.2184" y="64.9188" width="10.8784" height="27.6281" rx="5.43921" fill="black"/>
<path d="M29.3834 67.6204L29.3834 48.0286C29.3834 42.8141 25.1562 38.5869 19.9417 38.5869C14.7272 38.5869 10.5 42.8141 10.5 48.0286C10.5 51.769 12.675 55.0013 15.8292 56.53V72.4525H15.8609C16.271 77.6259 20.599 81.6962 25.8778 81.6962H65.1222C70.401 81.6962 74.729 77.6259 75.1391 72.4525H75.1708V56.53C78.325 55.0013 80.5 51.769 80.5 48.0286C80.5 42.8141 76.2728 38.5869 71.0583 38.5869C65.8438 38.5869 61.6166 42.8141 61.6166 48.0286V67.6204H29.3834Z" fill="black"/>
<rect x="22.5809" y="56.0071" width="45.8382" height="11.6133" rx="5.80667" fill="white" stroke="black" stroke-width="5"/>
</g>
</g>
</g>
<defs>
<clipPath id="clip0">
<rect width="90" height="90" fill="white" transform="translate(0.5)"/>
</clipPath>
<clipPath id="clip1">
<rect width="90" height="90" fill="white" transform="translate(0.5)"/>
</clipPath>
</defs>
</svg>
