<svg width="91" height="90" viewBox="0 0 91 90" fill="none" xmlns="http://www.w3.org/2000/svg">
<g clip-path="url(#clip0)">
<g clip-path="url(#clip1)">
<circle cx="45.1696" cy="45" r="45" fill="#FB6721"/>
<mask id="mask0" mask-type="alpha" maskUnits="userSpaceOnUse" x="0" y="0" width="91" height="90">
<circle cx="45.1696" cy="45" r="45" fill="#FB6721"/>
</mask>
<g mask="url(#mask0)">
<rect x="36.3948" y="55.9189" width="17.5493" height="40.3297" rx="7" fill="black"/>
</g>
<path d="M73.8637 48C73.8637 59.9543 61.4711 70.3787 45.1696 70.3787C28.8681 70.3787 16.4755 59.9543 16.4755 48C16.4755 36.0457 28.8681 25.6213 45.1696 25.6213C61.4711 25.6213 73.8637 36.0457 73.8637 48Z" fill="black" stroke="black" stroke-width="4"/>
<path d="M73.8637 41.458C73.8637 53.4123 61.4711 63.8367 45.1696 63.8367C28.8681 63.8367 16.4755 53.4123 16.4755 41.458C16.4755 29.5037 28.8681 19.0793 45.1696 19.0793C61.4711 19.0793 73.8637 29.5037 73.8637 41.458Z" fill="white" stroke="black" stroke-width="4"/>
</g>
</g>
<defs>
<clipPath id="clip0">
<rect width="90" height="90" fill="white" transform="translate(0.169586)"/>
</clipPath>
<clipPath id="clip1">
<rect width="90" height="90" fill="white" transform="translate(0.169586)"/>
</clipPath>
</defs>
</svg>
